<svg xmlns="http://www.w3.org/2000/svg" xmlns:xlink="http://www.w3.org/1999/xlink" viewBox="0,0,256,256" width="64px" height="64px" fill-rule="nonzero"><defs><linearGradient x1="30.469" y1="4" x2="30.469" y2="24.122" gradientUnits="userSpaceOnUse" id="color-1"><stop offset="0.117" stop-color="#000000" stop-opacity="0.78824"></stop><stop offset="0.883" stop-color="#dc8aff"></stop></linearGradient><linearGradient x1="19.5" y1="13.973" x2="19.5" y2="54.623" gradientUnits="userSpaceOnUse" id="color-2"><stop offset="0.08" stop-color="#000000" stop-opacity="0.78824"></stop><stop offset="0.846" stop-color="#dc8aff"></stop></linearGradient><linearGradient x1="32.247" y1="24.122" x2="32.247" y2="59.986" gradientUnits="userSpaceOnUse" id="color-3"><stop offset="0.133" stop-color="#000000" stop-opacity="0.78824"></stop><stop offset="0.941" stop-color="#dc8aff"></stop></linearGradient><linearGradient x1="39.338" y1="4.779" x2="39.338" y2="59.604" gradientUnits="userSpaceOnUse" id="color-4"><stop offset="0" stop-color="#000000"></stop><stop offset="1" stop-color="#c822ff"></stop></linearGradient><linearGradient x1="23.131" y1="4.779" x2="23.131" y2="59.604" gradientUnits="userSpaceOnUse" id="color-5"><stop offset="0" stop-color="#000000"></stop><stop offset="1" stop-color="#c822ff"></stop></linearGradient><linearGradient x1="36.75" y1="4.779" x2="36.75" y2="59.604" gradientUnits="userSpaceOnUse" id="color-6"><stop offset="0" stop-color="#000000"></stop><stop offset="1" stop-color="#c822ff"></stop></linearGradient><linearGradient x1="32" y1="4.779" x2="32" y2="59.604" gradientUnits="userSpaceOnUse" id="color-7"><stop offset="0" stop-color="#000000"></stop><stop offset="1" stop-color="#c822ff"></stop></linearGradient></defs><g fill="none" fill-rule="nonzero" stroke="none" stroke-width="1" stroke-linecap="butt" stroke-linejoin="none" stroke-miterlimit="10" stroke-dasharray="" stroke-dashoffset="0" font-family="none" font-weight="none" font-size="none" text-anchor="none" style="mix-blend-mode: normal"><path transform="scale(4,4)" d="M39.761,3.004c0.18782,0.01605 0.35908,0.08295 0.50136,0.18603c0.09042,0.06517 0.1712,0.14651 0.23764,0.24297l10.30754,14.97608c0.05138,0.07032 0.09288,0.14657 0.12402,0.22653c0.06586,0.16826 0.0854,0.35256 0.05444,0.53339l-6,35c-0.017,0.097 -0.048,0.192 -0.092,0.28l-3.00115,5.97435c-0.09418,0.19433 -0.25175,0.35963 -0.46085,0.46165c-0.141,0.069 -0.291,0.101 -0.438,0.101c-0.00017,0 -0.00033,0 -0.0005,0c-0.00017,0 -0.00033,0 -0.0005,0c-0.106,0 -0.213,-0.017 -0.318,-0.052l-15.96509,-5.35264c-0.29375,-0.08889 -0.53246,-0.30979 -0.64322,-0.5967l-10.98568,-25.59065c-0.114,-0.266 -0.107,-0.569 0.019,-0.83l7.25209,-15.00443c0.01622,-0.03561 0.0345,-0.07021 0.05471,-0.10362c0.09175,-0.15231 0.22324,-0.27764 0.3802,-0.36294l18.34351,-9.93437c0.17922,-0.11679 0.39788,-0.17635 0.63049,-0.15463z" id="strokeMainSVG" fill-opacity="0.65882" fill="#4d0b75" stroke-opacity="0.65882" stroke="#4d0b75" stroke-linejoin="round"></path><g transform="scale(4,4)" stroke="none" stroke-linejoin="miter"><path d="M23.5,24.123l-2.237,-10.15l18.413,-9.973l-0.676,8z" fill="url(#color-1)"></path><path d="M14,29l7.263,-15.027l2.237,10.15l1.5,30.5z" fill="url(#color-2)"></path><path d="M25,54.623l15.993,5.363l-17.493,-35.863z" fill="url(#color-3)"></path><path d="M39.001,13c-0.028,0 -0.057,-0.001 -0.085,-0.003c-0.55,-0.047 -0.958,-0.53 -0.912,-1.081l0.676,-8c0.047,-0.55 0.524,-0.964 1.081,-0.912c0.55,0.047 0.958,0.53 0.912,1.081l-0.676,8c-0.045,0.521 -0.482,0.915 -0.996,0.915z" fill="url(#color-4)"></path><path d="M24.999,55.624c-0.53,0 -0.972,-0.416 -0.998,-0.951l-1.496,-30.417l-2.219,-10.067c-0.119,-0.54 0.222,-1.073 0.761,-1.192c0.541,-0.12 1.073,0.222 1.192,0.761l2.237,10.149c0.012,0.055 0.02,0.11 0.022,0.166l1.5,30.501c0.027,0.552 -0.398,1.021 -0.95,1.048c-0.016,0.001 -0.032,0.002 -0.049,0.002z" fill="url(#color-5)"></path><path d="M40.994,60.986c-0.371,0 -0.727,-0.207 -0.9,-0.562l-17.493,-35.863c-0.207,-0.424 -0.089,-0.936 0.283,-1.226l15.5,-12.123c0.334,-0.261 0.796,-0.283 1.153,-0.056l11,7c0.466,0.296 0.603,0.915 0.307,1.381c-0.296,0.466 -0.914,0.604 -1.381,0.307l-10.403,-6.621l-14.307,11.189l17.139,35.136c0.242,0.497 0.036,1.095 -0.46,1.337c-0.141,0.069 -0.291,0.101 -0.438,0.101z" fill="url(#color-6)"></path><path d="M40.993,60.986c-0.106,0 -0.213,-0.017 -0.318,-0.052l-15.993,-5.362c-0.27,-0.091 -0.489,-0.292 -0.601,-0.554l-11,-25.624c-0.114,-0.266 -0.107,-0.569 0.019,-0.83l7.263,-15.027c0.091,-0.189 0.24,-0.344 0.424,-0.444l18.413,-9.972c0.447,-0.242 1.01,-0.109 1.3,0.312l10.324,15c0.148,0.215 0.206,0.479 0.162,0.736l-6,35c-0.017,0.097 -0.048,0.192 -0.092,0.28l-3.007,5.986c-0.174,0.345 -0.525,0.551 -0.894,0.551zM25.742,53.818l14.747,4.944l2.551,-5.078l5.906,-34.452l-9.584,-13.924l-17.34,9.391l-6.924,14.326z" fill="url(#color-7)"></path></g></g></svg>